<svg height="512pt" viewBox="0 0 512.01531 512" width="512pt" xmlns="http://www.w3.org/2000/svg"><path d="m59.75 392.539062v-307.199218h34.132812v307.199218zm0 0" fill="#e3e7f2"/><path d="m59.75 59.742188h392.53125v34.132812h-392.53125zm0 0" fill="#cc66a1"/><path d="m59.75 418.140625h392.53125v34.132813h-392.53125zm0 0" fill="#cc66a1"/><path d="m426.683594 392.539062v-307.199218h34.132812v307.199218zm0 0" fill="#cc66a1"/><path d="m59.75 59.742188h392.53125v34.132812h-392.53125zm0 0" fill="#e3e7f2"/><path d="m59.75 418.140625h392.53125v34.132813h-392.53125zm0 0" fill="#e3e7f2"/><path d="m426.683594 392.539062v-307.199218h34.132812v307.199218zm0 0" fill="#e3e7f2"/><path d="m213.347656 187.742188h85.335938c14.136718 0 25.597656 11.460937 25.597656 25.597656v85.335937c0 14.136719-11.460938 25.597657-25.597656 25.597657h-85.335938c-14.136718 0-25.597656-11.460938-25.597656-25.597657v-85.335937c0-14.136719 11.460938-25.597656 25.597656-25.597656zm0 0" fill="#a4c2f7"/><path d="m34.148438 187.742188h85.332031c14.140625 0 25.601562 11.460937 25.601562 25.597656v85.335937c0 14.136719-11.460937 25.597657-25.601562 25.597657h-85.332031c-14.136719 0-25.601563-11.460938-25.601563-25.597657v-85.335937c0-14.136719 11.464844-25.597656 25.601563-25.597656zm0 0" fill="#e3e7f2"/><path d="m34.148438 366.941406h85.332031c14.140625 0 25.601562 11.460938 25.601562 25.597656v85.335938c0 14.136719-11.460937 25.597656-25.601562 25.597656h-85.332031c-14.136719 0-25.601563-11.460937-25.601563-25.597656v-85.335938c0-14.136718 11.464844-25.597656 25.601563-25.597656zm0 0" fill="#e3e7f2"/><path d="m34.148438 8.539062h85.332031c14.140625 0 25.601562 11.464844 25.601562 25.601563v85.332031c0 14.140625-11.460937 25.601563-25.601562 25.601563h-85.332031c-14.136719 0-25.601563-11.460938-25.601563-25.601563v-85.332031c0-14.136719 11.464844-25.601563 25.601563-25.601563zm0 0" fill="#e3e7f2"/><path d="m392.546875 187.742188h85.335937c14.136719 0 25.597657 11.460937 25.597657 25.597656v85.335937c0 14.136719-11.460938 25.597657-25.597657 25.597657h-85.335937c-14.136719 0-25.597656-11.460938-25.597656-25.597657v-85.335937c0-14.136719 11.460937-25.597656 25.597656-25.597656zm0 0" fill="#e3e7f2"/><path d="m392.546875 366.941406h85.335937c14.136719 0 25.597657 11.460938 25.597657 25.597656v85.335938c0 14.136719-11.460938 25.597656-25.597657 25.597656h-85.335937c-14.136719 0-25.597656-11.460937-25.597656-25.597656v-85.335938c0-14.136718 11.460937-25.597656 25.597656-25.597656zm0 0" fill="#e3e7f2"/><path d="m392.546875 8.539062h85.335937c14.136719 0 25.597657 11.464844 25.597657 25.601563v85.332031c0 14.140625-11.460938 25.601563-25.597657 25.601563h-85.335937c-14.136719 0-25.597656-11.460938-25.597656-25.601563v-85.332031c0-14.136719 11.460937-25.601563 25.597656-25.601563zm0 0" fill="#e3e7f2"/><path d="m392.546875 187.742188h85.335937c14.136719 0 25.597657 11.460937 25.597657 25.597656v85.335937c0 14.136719-11.460938 25.597657-25.597657 25.597657h-85.335937c-14.136719 0-25.597656-11.460938-25.597656-25.597657v-85.335937c0-14.136719 11.460937-25.597656 25.597656-25.597656zm0 0" fill="#a4c2f7"/><path d="m392.546875 366.941406h85.335937c14.136719 0 25.597657 11.460938 25.597657 25.597656v85.335938c0 14.136719-11.460938 25.597656-25.597657 25.597656h-85.335937c-14.136719 0-25.597656-11.460937-25.597656-25.597656v-85.335938c0-14.136718 11.460937-25.597656 25.597656-25.597656zm0 0" fill="#a4c2f7"/><path d="m392.546875 8.539062h85.335937c14.136719 0 25.597657 11.464844 25.597657 25.601563v85.332031c0 14.140625-11.460938 25.601563-25.597657 25.601563h-85.335937c-14.136719 0-25.597656-11.460938-25.597656-25.601563v-85.332031c0-14.136719 11.460937-25.601563 25.597656-25.601563zm0 0" fill="#a4c2f7"/><g fill="#e3e7f2"><path d="m392.546875 187.742188h59.734375c14.140625 0 25.601562 11.460937 25.601562 25.597656v85.335937c0 14.136719-11.460937 25.597657-25.601562 25.597657h-59.734375c-14.136719 0-25.597656-11.460938-25.597656-25.597657v-85.335937c0-14.136719 11.460937-25.597656 25.597656-25.597656zm0 0"/><path d="m392.546875 366.941406h59.734375c14.140625 0 25.601562 11.460938 25.601562 25.597656v85.335938c0 14.136719-11.460937 25.597656-25.601562 25.597656h-59.734375c-14.136719 0-25.597656-11.460937-25.597656-25.597656v-85.335938c0-14.136718 11.460937-25.597656 25.597656-25.597656zm0 0"/><path d="m392.546875 8.539062h59.734375c14.140625 0 25.601562 11.464844 25.601562 25.601563v85.332031c0 14.140625-11.460937 25.601563-25.601562 25.601563h-59.734375c-14.136719 0-25.597656-11.460938-25.597656-25.601563v-85.332031c0-14.136719 11.460937-25.601563 25.597656-25.601563zm0 0"/><path d="m392.546875 187.742188h59.734375c14.140625 0 25.601562 11.460937 25.601562 25.597656v85.335937c0 14.136719-11.460937 25.597657-25.601562 25.597657h-59.734375c-14.136719 0-25.597656-11.460938-25.597656-25.597657v-85.335937c0-14.136719 11.460937-25.597656 25.597656-25.597656zm0 0"/><path d="m392.546875 366.941406h59.734375c14.140625 0 25.601562 11.460938 25.601562 25.597656v85.335938c0 14.136719-11.460937 25.597656-25.601562 25.597656h-59.734375c-14.136719 0-25.597656-11.460937-25.597656-25.597656v-85.335938c0-14.136718 11.460937-25.597656 25.597656-25.597656zm0 0"/><path d="m392.546875 8.539062h59.734375c14.140625 0 25.601562 11.464844 25.601562 25.601563v85.332031c0 14.140625-11.460937 25.601563-25.601562 25.601563h-59.734375c-14.136719 0-25.597656-11.460938-25.597656-25.601563v-85.332031c0-14.136719 11.460937-25.601563 25.597656-25.601563zm0 0"/><path d="m213.347656 8.539062h85.335938c14.136718 0 25.597656 11.464844 25.597656 25.601563v85.332031c0 14.140625-11.460938 25.601563-25.597656 25.601563h-85.335938c-14.136718 0-25.597656-11.460938-25.597656-25.601563v-85.332031c0-14.136719 11.460938-25.601563 25.597656-25.601563zm0 0"/><path d="m213.347656 366.941406h85.335938c14.136718 0 25.597656 11.460938 25.597656 25.597656v85.335938c0 14.136719-11.460938 25.597656-25.597656 25.597656h-85.335938c-14.136718 0-25.597656-11.460937-25.597656-25.597656v-85.335938c0-14.136718 11.460938-25.597656 25.597656-25.597656zm0 0"/></g><path d="m8.546875 392.539062v85.335938c0 14.136719 11.464844 25.597656 25.601563 25.597656h25.601562c-14.140625 0-25.601562-11.460937-25.601562-25.597656v-85.335938c0-14.136718 11.460937-25.597656 25.601562-25.597656h-25.601562c-14.136719 0-25.601563 11.460938-25.601563 25.597656zm0 0" fill="#fff"/><path d="m59.75 324.273438h25.597656v42.667968h-25.597656zm0 0" fill="#fff"/><path d="m59.75 145.074219h25.597656v42.667969h-25.597656zm0 0" fill="#fff"/><path d="m34.148438 119.472656v-85.332031c0-14.136719 11.460937-25.601563 25.601562-25.601563h-25.601562c-14.136719 0-25.601563 11.464844-25.601563 25.601563v85.332031c0 14.140625 11.464844 25.601563 25.601563 25.601563h25.601562c-14.140625 0-25.601562-11.460938-25.601562-25.601563zm0 0" fill="#fff"/><path d="m34.148438 298.675781v-85.335937c0-14.136719 11.460937-25.597656 25.601562-25.597656h-25.601562c-14.136719 0-25.601563 11.460937-25.601563 25.597656v85.335937c0 14.136719 11.464844 25.597657 25.601563 25.597657h25.601562c-14.140625 0-25.601562-11.460938-25.601562-25.597657zm0 0" fill="#fff"/><path d="m34.148438 512.007812c-12.621094-.058593-24.195313-7.023437-30.15625-18.152343-2.785157-5.359375-4.152344-11.34375-3.976563-17.378907v-81.554687c-.0625-2.449219.0664062-4.902344.390625-7.332031.378906-2.691406 1.089844-5.328125 2.117188-7.847656 4.175781-10.257813 13.054687-17.859376 23.835937-20.40625 2.625-.609376 5.308594-.917969 8.003906-.929688h85.722657c2.71875.046875 5.421874.421875 8.050781 1.121094 10.726562 2.8125 19.417969 10.671875 23.285156 21.066406.964844 2.546875 1.613281 5.199219 1.929687 7.902344.1875 1.347656.1875 2.707031.265626 4.054687v85.621094c-.03125 1.355469-.125 2.710937-.292969 4.054687-1.429688 10.980469-8.078125 20.59375-17.851563 25.804688-4.839844 2.535156-10.203125 3.894531-15.667968 3.976562h-85.65625v-17.066406h85.496093c2.722657-.050781 5.398438-.726562 7.816407-1.980468 4.882812-2.597657 8.207031-7.398438 8.925781-12.886719.136719-.664063.078125-1.363281.152343-2.039063v-85.496094c-.066406-.679687 0-1.371093-.136718-2.046874-.160156-1.34375-.484375-2.660157-.972656-3.925782-1.933594-5.1875-6.273438-9.105468-11.628907-10.503906-1.308593-.359375-2.65625-.554688-4.011719-.589844h-85.425781c-1.386719.003906-2.765625.164063-4.113281.472656-5.40625 1.28125-9.855469 5.09375-11.949219 10.238282-.507812 1.253906-.855469 2.566406-1.039062 3.910156-.1875 1.601562-.25 3.214844-.179688 4.828125v81.554687c-.195312 3.25.492188 6.492188 1.988281 9.386719 2.984376 5.554688 8.769532 9.039063 15.078126 9.078125zm0 0" fill="#fff"/><path d="m477.882812 153.609375c18.851563 0 34.132813-15.285156 34.132813-34.136719v-85.332031c0-18.851563-15.28125-34.1328125-34.132813-34.1328125h-85.335937c-18.847656 0-34.132813 15.2812495-34.132813 34.1328125v17.066406h-25.597656v-17.066406c0-18.851563-15.28125-34.1328125-34.132812-34.1328125h-85.335938c-18.851562 0-34.132812 15.2812495-34.132812 34.1328125v17.066406h-25.597656v-17.066406c0-18.851563-15.285157-34.1328125-34.136719-34.1328125h-85.332031c-18.851563 0-34.132813 15.2812495-34.132813 34.1328125v85.332031c0 18.851563 15.28125 34.136719 34.132813 34.136719h17.066406v25.597656h-17.066406c-18.851563 0-34.132813 15.28125-34.132813 34.132813v85.335937c0 18.851563 15.28125 34.132813 34.132813 34.132813h17.066406v25.597656h-16.851563c-2.695312.007812-5.378906.316406-8.003906.921875-10.78125 2.546875-19.664063 10.152344-23.835937 20.414063-1.027344 2.519531-1.738282 5.160156-2.117188 7.859374-.3203125 2.425782-.453125 4.875-.390625 7.320313v20.753906c0 4.710938 3.820313 8.53125 8.53125 8.53125 4.714844 0 8.535156-3.820312 8.535156-8.53125v-20.753906c-.058593-1.628906.011719-3.257813.214844-4.871094.183594-1.34375.53125-2.65625 1.039063-3.910156 2.09375-5.144531 6.542968-8.957031 11.945312-10.238281 1.339844-.292969 2.710938-.4375 4.082031-.429688h85.433594c1.359375.023438 2.707031.207032 4.019531.554688 5.363282 1.410156 9.699219 5.34375 11.621094 10.539062.488281 1.265625.8125 2.582032.976562 3.925782.101563.675781.066407 1.367187.132813 2.046874v85.488282c-.074219.675781 0 1.375-.152344 2.039062-.714843 5.488282-4.042969 10.285156-8.925781 12.886719-2.417969 1.25-5.09375 1.929687-7.816406 1.980469h-85.503906c-7.863282-.039063-14.6875-5.421875-16.5625-13.058594-.515626-1.640625-1.578126-3.050781-3.011719-4-1.605469-1.585938-3.769531-2.472656-6.027344-2.46875-2.269531.015625-4.4375.9375-6.023437 2.5625-1.695313 2.277344-2.261719 5.207031-1.535157 7.953125 3.757813 15.273437 17.429688 26.027344 33.160157 26.085937h85.65625c5.460937-.078124 10.824218-1.4375 15.660156-3.96875 9.773437-5.210937 16.421875-14.824218 17.851562-25.804687.167969-1.347656.269532-2.703125.300782-4.0625v-17.363281h25.597656v17.066406c0 18.851562 15.28125 34.132812 34.132812 34.132812h85.335938c18.851562 0 34.132812-15.28125 34.132812-34.132812v-17.066406h25.597656v17.066406c0 18.851562 15.285157 34.132812 34.132813 34.132812h85.335937c18.851563 0 34.132813-15.28125 34.132813-34.132812v-85.335938c0-18.847656-15.28125-34.132812-34.132813-34.132812h-17.066406v-25.597656h17.066406c18.851563 0 34.132813-15.28125 34.132813-34.132813v-85.335937c0-18.851563-15.28125-34.132813-34.132813-34.132813h-17.066406v-25.597656zm-102.402343-119.46875c0-9.425781 7.640625-17.066406 17.066406-17.066406h85.335937c9.425782 0 17.066407 7.640625 17.066407 17.066406v85.332031c0 9.425782-7.640625 17.066406-17.066407 17.066406h-85.335937c-9.425781 0-17.066406-7.640624-17.066406-17.066406zm-17.066407 34.132813v17.066406h-25.597656v-17.066406zm-162.132812-34.132813c0-9.425781 7.640625-17.066406 17.066406-17.066406h85.335938c9.425781 0 17.066406 7.640625 17.066406 17.066406v85.332031c0 9.425782-7.640625 17.066406-17.066406 17.066406h-85.335938c-9.425781 0-17.066406-7.640624-17.066406-17.066406zm-17.066406 34.132813v17.066406h-25.597656v-17.066406zm-162.132813 51.199218v-85.332031c0-9.425781 7.640625-17.066406 17.066407-17.066406h85.332031c9.425781 0 17.066406 7.640625 17.066406 17.066406v85.332031c0 9.425782-7.640625 17.066406-17.066406 17.066406h-85.332031c-9.425782 0-17.066407-7.640624-17.066407-17.066406zm51.199219 34.136719h17.066406v25.597656h-17.066406zm-51.199219 145.066406v-85.335937c0-9.425782 7.640625-17.066406 17.066407-17.066406h85.332031c9.425781 0 17.066406 7.640624 17.066406 17.066406v85.335937c0 9.425781-7.640625 17.066407-17.066406 17.066407h-85.332031c-9.425782 0-17.066407-7.640626-17.066407-17.066407zm60.066407 59.730469h-8.867188v-25.597656h17.066406v25.597656zm50.988281 1.144531c-2.628907-.707031-5.335938-1.089843-8.058594-1.144531h-17.664063v-25.597656h17.066407c18.851562 0 34.136719-15.28125 34.136719-34.132813v-85.335937c0-18.851563-15.285157-34.132813-34.136719-34.132813h-17.066407v-25.597656h17.066407c18.851562 0 34.136719-15.285156 34.136719-34.136719v-17.066406h25.597656v17.066406c0 18.851563 15.28125 34.136719 34.132812 34.136719h85.335938c18.851562 0 34.132812-15.285156 34.132812-34.136719v-17.066406h25.597656v17.066406c0 18.851563 15.285157 34.136719 34.132813 34.136719h17.070313v25.597656h-17.070313c-18.847656 0-34.132813 15.28125-34.132813 34.132813v85.335937c0 18.851563 15.285157 34.132813 34.132813 34.132813h17.070313v25.597656h-17.070313c-18.847656 0-34.132813 15.285156-34.132813 34.132812v17.070313h-25.597656v-17.070313c0-18.847656-15.28125-34.132812-34.132812-34.132812h-85.335938c-18.851562 0-34.132812 15.285156-34.132812 34.132812v17.070313h-25.597656v-17.070313c-.078126-1.347656-.078126-2.703124-.265626-4.050781-.316406-2.703125-.964843-5.359375-1.929687-7.902343-3.878906-10.382813-12.566406-18.230469-23.285156-21.035157zm25.480469 84.191407v-17.066407h25.597656v17.066407zm162.132812 34.132812c0 9.425781-7.640625 17.066406-17.066406 17.066406h-85.335938c-9.425781 0-17.066406-7.640625-17.066406-17.066406v-85.335938c0-9.421874 7.640625-17.066406 17.066406-17.066406h85.335938c9.425781 0 17.066406 7.644532 17.066406 17.066406zm17.066406-34.132812v-17.066407h25.597656v17.066407zm162.132813-51.203126v85.335938c0 9.425781-7.640625 17.066406-17.066407 17.066406h-85.335937c-9.425781 0-17.066406-7.640625-17.066406-17.066406v-85.335938c0-9.421874 7.640625-17.066406 17.066406-17.066406h85.335937c9.425782 0 17.066407 7.644532 17.066407 17.066406zm-51.199219-34.132812h-17.066406v-25.597656h17.066406zm51.199219-145.066406v85.335937c0 9.425781-7.640625 17.066407-17.066407 17.066407h-85.335937c-9.425781 0-17.066406-7.640626-17.066406-17.066407v-85.335937c0-9.425782 7.640625-17.066406 17.066406-17.066406h85.335937c9.425782 0 17.066407 7.640624 17.066407 17.066406zm-51.199219-34.132813h-17.066406v-25.597656h17.066406zm0 0" fill="#428dff"/><path d="m213.347656 332.808594h85.335938c18.851562 0 34.132812-15.28125 34.132812-34.132813v-85.335937c0-18.851563-15.28125-34.132813-34.132812-34.132813h-85.335938c-18.851562 0-34.132812 15.28125-34.132812 34.132813v85.335937c0 18.851563 15.28125 34.132813 34.132812 34.132813zm-17.066406-119.46875c0-9.425782 7.640625-17.066406 17.066406-17.066406h85.335938c9.425781 0 17.066406 7.640624 17.066406 17.066406v85.335937c0 9.425781-7.640625 17.066407-17.066406 17.066407h-85.335938c-9.425781 0-17.066406-7.640626-17.066406-17.066407zm0 0" fill="#428dff"/><path d="m76.816406 42.675781c0-4.714843-3.820312-8.535156-8.535156-8.535156h-25.597656c-4.714844 0-8.535156 3.820313-8.535156 8.535156v25.597657c0 4.714843 3.820312 8.535156 8.535156 8.535156 4.710937 0 8.53125-3.820313 8.53125-8.535156v-17.066407h17.066406c4.714844 0 8.535156-3.820312 8.535156-8.53125zm0 0" fill="#428dff"/><path d="m435.214844 469.339844c0 4.714844 3.820312 8.535156 8.535156 8.535156h25.597656c4.714844 0 8.535156-3.820312 8.535156-8.535156v-25.597656c0-4.714844-3.820312-8.535157-8.535156-8.535157-4.710937 0-8.53125 3.820313-8.53125 8.535157v17.066406h-17.066406c-4.714844 0-8.535156 3.820312-8.535156 8.53125zm0 0" fill="#428dff"/><path d="m5.304688 457.667969c.488281.238281 1.003906.410156 1.539062.503906.5625.09375 1.132812.152344 1.703125.167969 2.261719-.03125 4.425781-.914063 6.058594-2.472656 3.222656-3.398438 3.222656-8.71875 0-12.117188-.816407-.769531-1.773438-1.375-2.8125-1.792969-1.027344-.4375-2.128907-.667969-3.246094-.683593-2.253906.035156-4.417969.914062-6.058594 2.46875-3.296875 3.363281-3.296875 8.75 0 12.117187l1.28125 1.023437c.476563.328126.992188.59375 1.535157.785157zm0 0" fill="#428dff"/></svg>